<svg viewBox="0 0 500 400" xmlns="http://www.w3.org/2000/svg">
  <!-- Background gradient -->
  <defs>
    <linearGradient id="bgGradient2" x1="0%" y1="0%" x2="100%" y2="100%">
      <stop offset="0%" style="stop-color:#F8FAFC;stop-opacity:1" />
      <stop offset="100%" style="stop-color:#E2E8F0;stop-opacity:1" />
    </linearGradient>
  </defs>
  <rect width="500" height="400" fill="url(#bgGradient2)"/>
  
  <!-- Premium car illustration -->
  <g transform="translate(80, 100)">
    <!-- Car body with luxury feel -->
    <path d="M 50 120 Q 40 100 60 80 L 260 80 Q 280 100 270 120 L 280 150 Q 280 160 270 165 L 50 165 Q 40 160 40 150 Z" fill="#F59E0B" stroke="#0F172A" stroke-width="2"/>
    
    <!-- Windows -->
    <rect x="90" y="85" width="45" height="30" rx="5" fill="#CBD5E1" opacity="0.7"/>
    <rect x="155" y="85" width="50" height="30" rx="5" fill="#CBD5E1" opacity="0.7"/>
    
    <!-- Wheels -->
    <circle cx="90" cy="170" r="22" fill="#0F172A" stroke="#F59E0B" stroke-width="3"/>
    <circle cx="90" cy="170" r="14" fill="#334155"/>
    <circle cx="240" cy="170" r="22" fill="#0F172A" stroke="#F59E0B" stroke-width="3"/>
    <circle cx="240" cy="170" r="14" fill="#334155"/>
    
    <!-- Headlights -->
    <circle cx="65" cy="110" r="8" fill="#FCD34D"/>
    <circle cx="75" cy="110" r="8" fill="#FCD34D"/>
    
    <!-- Heart symbol above car -->
    <path d="M 160 30 Q 160 15 170 15 Q 180 15 180 25 Q 180 15 190 15 Q 200 15 200 30 Q 200 50 180 65 Q 160 50 160 30 Z" fill="#6D28D9"/>
  </g>
</svg>
