<svg viewBox="0 0 500 400" xmlns="http://www.w3.org/2000/svg">
  <!-- Background gradient -->
  <defs>
    <linearGradient id="bgGradient4" x1="0%" y1="0%" x2="100%" y2="100%">
      <stop offset="0%" style="stop-color:#F8FAFC;stop-opacity:1" />
      <stop offset="100%" style="stop-color:#E2E8F0;stop-opacity:1" />
    </linearGradient>
  </defs>
  <rect width="500" height="400" fill="url(#bgGradient4)"/>
  
  <!-- Battery and EV Bike illustration -->
  <g transform="translate(100, 80)">
    <!-- Bike body -->
    <circle cx="80" cy="140" r="25" fill="none" stroke="#0F172A" stroke-width="3"/>
    <circle cx="180" cy="140" r="25" fill="none" stroke="#0F172A" stroke-width="3"/>
    <line x1="105" y1="140" x2="155" y2="140" stroke="#0F172A" stroke-width="3"/>
    
    <!-- Bike seat -->
    <ellipse cx="130" cy="110" rx="15" ry="8" fill="#10B981"/>
    
    <!-- Front fork -->
    <path d="M 180 115 L 190 75" stroke="#0F172A" stroke-width="2"/>
    <line x1="190" y1="75" x2="180" y2="140"/>
    
    <!-- Battery illustration above bike -->
    <rect x="50" y="20" width="40" height="50" rx="5" fill="#10B981" stroke="#0F172A" stroke-width="2"/>
    <rect x="55" y="25" width="30" height="20" fill="#E2E8F0"/>
    <circle cx="70" cy="30" r="4" fill="#0F172A"/>
    <circle cx="70" cy="40" r="4" fill="#0F172A"/>
    
    <!-- Charging plug symbol -->
    <rect x="120" y="15" width="40" height="30" fill="#F59E0B" rx="4"/>
    <circle cx="127" cy="25" r="3" fill="#0F172A"/>
    <circle cx="135" cy="25" r="3" fill="#0F172A"/>
    <circle cx="127" cy="35" r="3" fill="#0F172A"/>
    <circle cx="135" cy="35" r="3" fill="#0F172A"/>
    
    <!-- Lightning bolt -->
    <path d="M 165 35 L 175 55 L 165 55 L 175 75 L 155 60 L 165 60 Z" fill="#10B981"/>
  </g>
</svg>
