<svg viewBox="0 0 600 480" xmlns="http://www.w3.org/2000/svg">
  <defs>
    <linearGradient id="bg4" x1="0%" y1="0%" x2="100%" y2="100%">
      <stop offset="0%" style="stop-color:#09070F;stop-opacity:1" />
      <stop offset="100%" style="stop-color:#1E0B40;stop-opacity:1" />
    </linearGradient>
    <linearGradient id="bldgGrad" x1="0%" y1="0%" x2="0%" y2="100%">
      <stop offset="0%" style="stop-color:#5B21B6" />
      <stop offset="100%" style="stop-color:#2E1065" />
    </linearGradient>
    <radialGradient id="glow4" cx="50%" cy="50%" r="50%">
      <stop offset="0%" style="stop-color:#7C3AED;stop-opacity:0.5" />
      <stop offset="100%" style="stop-color:#4C1D95;stop-opacity:0" />
    </radialGradient>
    <filter id="blur5"><feGaussianBlur stdDeviation="22"/></filter>
  </defs>
  <rect width="600" height="480" fill="url(#bg4)"/>
  <circle cx="300" cy="220" r="200" fill="url(#glow4)" filter="url(#blur5)" opacity="0.7"/>
  
  <!-- Grid -->
  <g stroke="#4C1D95" stroke-width="0.4" opacity="0.12">
    <line x1="0" y1="80" x2="600" y2="80"/><line x1="0" y1="160" x2="600" y2="160"/>
    <line x1="0" y1="240" x2="600" y2="240"/><line x1="0" y1="320" x2="600" y2="320"/>
    <line x1="0" y1="400" x2="600" y2="400"/>
    <line x1="100" y1="0" x2="100" y2="480"/><line x1="200" y1="0" x2="200" y2="480"/>
    <line x1="300" y1="0" x2="300" y2="480"/><line x1="400" y1="0" x2="400" y2="480"/>
    <line x1="500" y1="0" x2="500" y2="480"/>
  </g>

  <!-- Building/Property illustration -->
  <!-- Ground -->
  <rect x="0" y="380" width="600" height="100" fill="#0F0718" opacity="0.8"/>
  
  <!-- Main building -->
  <rect x="160" y="120" width="280" height="260" rx="4" fill="url(#bldgGrad)"/>
  
  <!-- Building windows grid -->
  <g fill="#A78BFA" opacity="0.25">
    <rect x="180" y="140" width="35" height="28" rx="3"/>
    <rect x="230" y="140" width="35" height="28" rx="3"/>
    <rect x="280" y="140" width="35" height="28" rx="3"/>
    <rect x="330" y="140" width="35" height="28" rx="3"/>
    <rect x="380" y="140" width="35" height="28" rx="3"/>
    
    <rect x="180" y="185" width="35" height="28" rx="3"/>
    <rect x="230" y="185" width="35" height="28" rx="3"/>
    <rect x="280" y="185" width="35" height="28" rx="3" fill="#A78BFA" opacity="0.5"/>
    <rect x="330" y="185" width="35" height="28" rx="3"/>
    <rect x="380" y="185" width="35" height="28" rx="3"/>
    
    <rect x="180" y="230" width="35" height="28" rx="3"/>
    <rect x="230" y="230" width="35" height="28" rx="3"/>
    <rect x="280" y="230" width="35" height="28" rx="3"/>
    <rect x="330" y="230" width="35" height="28" rx="3" fill="#A78BFA" opacity="0.5"/>
    <rect x="380" y="230" width="35" height="28" rx="3"/>
    
    <rect x="180" y="275" width="35" height="28" rx="3"/>
    <rect x="230" y="275" width="35" height="28" rx="3"/>
    <rect x="280" y="275" width="35" height="28" rx="3"/>
    <rect x="330" y="275" width="35" height="28" rx="3"/>
    <rect x="380" y="275" width="35" height="28" rx="3"/>
  </g>
  
  <!-- Building entrance -->
  <rect x="260" y="320" width="80" height="60" rx="6" fill="#1E0B40"/>
  <rect x="270" y="320" width="35" height="60" rx="3" fill="#A78BFA" opacity="0.1"/>
  
  <!-- Building roof accent -->
  <rect x="155" y="112" width="290" height="12" rx="4" fill="#7C3AED" opacity="0.8"/>
  
  <!-- Left smaller buildings -->
  <rect x="40" y="200" width="110" height="180" rx="3" fill="#2E1065" opacity="0.8"/>
  <g fill="#7C3AED" opacity="0.15">
    <rect x="55" y="215" width="24" height="20" rx="2"/>
    <rect x="90" y="215" width="24" height="20" rx="2"/>
    <rect x="125" y="215" width="24" height="20" rx="2"/>
    <rect x="55" y="250" width="24" height="20" rx="2"/>
    <rect x="90" y="250" width="24" height="20" rx="2"/>
    <rect x="125" y="250" width="24" height="20" rx="2"/>
    <rect x="55" y="285" width="24" height="20" rx="2"/>
    <rect x="90" y="285" width="24" height="20" rx="2"/>
    <rect x="125" y="285" width="24" height="20" rx="2"/>
  </g>
  
  <!-- Right smaller buildings -->
  <rect x="450" y="220" width="110" height="160" rx="3" fill="#2E1065" opacity="0.8"/>
  <g fill="#7C3AED" opacity="0.15">
    <rect x="465" y="235" width="22" height="18" rx="2"/>
    <rect x="498" y="235" width="22" height="18" rx="2"/>
    <rect x="531" y="235" width="22" height="18" rx="2"/>
    <rect x="465" y="268" width="22" height="18" rx="2"/>
    <rect x="498" y="268" width="22" height="18" rx="2"/>
    <rect x="531" y="268" width="22" height="18" rx="2"/>
    <rect x="465" y="301" width="22" height="18" rx="2"/>
    <rect x="498" y="301" width="22" height="18" rx="2"/>
    <rect x="531" y="301" width="22" height="18" rx="2"/>
  </g>

  <!-- Loan approval badge -->
  <g transform="translate(20, 50)">
    <rect width="175" height="72" rx="16" fill="#ffffff" opacity="0.04" stroke="#7C3AED" stroke-width="0.8"/>
    <text x="14" y="24" font-family="Inter,system-ui" font-size="9" fill="#A78BFA" font-weight="800" letter-spacing="2">LOAN AGAINST PROPERTY</text>
    <text x="14" y="46" font-family="Inter,system-ui" font-size="18" fill="white" font-weight="900">Up to ₹2Cr</text>
    <text x="14" y="62" font-family="Inter,system-ui" font-size="9" fill="#8B5CF6" font-weight="600">Competitive interest rates</text>
  </g>
  
  <!-- Right info card -->
  <g transform="translate(410, 50)">
    <rect width="165" height="72" rx="16" fill="#ffffff" opacity="0.04" stroke="#7C3AED" stroke-width="0.8"/>
    <text x="14" y="24" font-family="Inter,system-ui" font-size="9" fill="#A78BFA" font-weight="800" letter-spacing="2">PROCESSING</text>
    <text x="14" y="46" font-family="Inter,system-ui" font-size="18" fill="white" font-weight="900">3-7 Days</text>
    <text x="14" y="62" font-family="Inter,system-ui" font-size="9" fill="#8B5CF6" font-weight="600">Quick disbursal</text>
  </g>

  <!-- Moon/stars decoration -->
  <circle cx="520" cy="380" r="18" fill="#F59E0B" opacity="0.15"/>
  <circle cx="532" cy="372" r="14" fill="#09070F"/>
  <circle cx="70" cy="50" r="2" fill="white" opacity="0.6"/>
  <circle cx="120" cy="35" r="1.5" fill="white" opacity="0.4"/>
  <circle cx="545" cy="60" r="2" fill="white" opacity="0.5"/>
  <circle cx="490" cy="30" r="1.5" fill="white" opacity="0.3"/>
</svg>
