<svg viewBox="0 0 500 400" xmlns="http://www.w3.org/2000/svg">
  <!-- Background gradient -->
  <defs>
    <linearGradient id="bgGradient3" x1="0%" y1="0%" x2="100%" y2="100%">
      <stop offset="0%" style="stop-color:#F8FAFC;stop-opacity:1" />
      <stop offset="100%" style="stop-color:#E2E8F0;stop-opacity:1" />
    </linearGradient>
  </defs>
  <rect width="500" height="400" fill="url(#bgGradient3)"/>
  
  <!-- House illustration -->
  <g transform="translate(120, 60)">
    <!-- Roof -->
    <polygon points="130,20 260,80 0,80" fill="#10B981"/>
    <polygon points="130,20 130,80 0,80" fill="#0F8B5A" opacity="0.8"/>
    
    <!-- Chimney -->
    <rect x="180" y="10" width="25" height="40" fill="#0F172A"/>
    <rect x="180" y="5" width="25" height="8" fill="#F59E0B"/>
    
    <!-- Main body -->
    <rect x="0" y="80" width="260" height="130" fill="#CBD5E1"/>
    
    <!-- Door -->
    <rect x="105" y="140" width="50" height="70" fill="#0F172A" rx="4"/>
    <circle cx="150" cy="175" r="4" fill="#F59E0B"/>
    
    <!-- Windows -->
    <rect x="20" y="100" width="35" height="35" fill="#90CAF9" rx="4"/>
    <line x1="37.5" y1="100" x2="37.5" y2="135"/>
    <line x1="20" y1="117.5" x2="55" y2="117.5"/>
    
    <rect x="205" y="100" width="35" height="35" fill="#90CAF9" rx="4"/>
    <line x1="222.5" y1="100" x2="222.5" y2="135"/>
    <line x1="205" y1="117.5" x2="240" y2="117.5"/>
    
    <rect x="20" y="155" width="35" height="35" fill="#90CAF9" rx="4"/>
    <rect x="205" y="155" width="35" height="35" fill="#90CAF9" rx="4"/>
    
    <!-- Foundation -->
    <rect x="0" y="210" width="260" height="15" fill="#0F172A"/>
    
    <!-- Money bag icon above house -->
    <circle cx="130" cy="20" r="15" fill="#F59E0B"/>
    <text x="130" y="27" text-anchor="middle" font-size="20" fill="white" font-weight="bold">₹</text>
  </g>
</svg>
